<?xml version="1.0" encoding="UTF-8" standalone="no"?>
<!-- Created with Inkscape (http://www.inkscape.org/) -->

<svg
   width="210mm"
   height="297mm"
   viewBox="0 0 210 297"
   version="1.1"
   id="svg1"
   inkscape:version="1.3.2 (091e20e, 2023-11-25, custom)"
   sodipodi:docname="Map2.svg"
   xmlns:inkscape="http://www.inkscape.org/namespaces/inkscape"
   xmlns:sodipodi="http://sodipodi.sourceforge.net/DTD/sodipodi-0.dtd"
   xmlns="http://www.w3.org/2000/svg"
   xmlns:svg="http://www.w3.org/2000/svg">
  <sodipodi:namedview
     id="namedview1"
     pagecolor="#ffffff"
     bordercolor="#000000"
     borderopacity="0.25"
     inkscape:showpageshadow="2"
     inkscape:pageopacity="0.0"
     inkscape:pagecheckerboard="0"
     inkscape:deskcolor="#d1d1d1"
     inkscape:document-units="mm"
     inkscape:zoom="0.38331131"
     inkscape:cx="1466.1712"
     inkscape:cy="444.80816"
     inkscape:window-width="2560"
     inkscape:window-height="1494"
     inkscape:window-x="-11"
     inkscape:window-y="-11"
     inkscape:window-maximized="1"
     inkscape:current-layer="layer1" />
  <defs
     id="defs1" />
  <g
     inkscape:label="Layer 1"
     inkscape:groupmode="layer"
     id="layer1">
    <path
       id="rect1"
       style="fill:none;stroke:#000000;stroke-width:0.264583"
       d="M -82.140587,-254.0146 H 672.3104 V 363.07518 H -82.140587 Z" />
    <path
       style="fill:none;stroke:#000000;stroke-width:0.562612"
       d="m 61.321921,-147.13287 71.108839,-13.86068 13.40577,26.33529 -75.188865,3.69618 z"
       id="path9" />
    <path
       style="fill:none;stroke:#000000;stroke-width:0.562612"
       d="m 262.99127,-148.51893 64.11451,40.65798 -13.98862,42.968097 -60.03451,0.924045 -41.96589,-32.341578 z"
       id="path10" />
    <path
       style="fill:none;stroke:#000000;stroke-width:0.562612"
       d="m 216.36252,-176.24029 162.61775,12.01259 -11.07433,130.290359 27.39439,8.778432 19.23437,-162.169921 -220.32084,-9.24045 z"
       id="path11" />
    <path
       style="fill:none;stroke:#000000;stroke-width:0.562612"
       d="M 21.68748,-39.481607 61.904776,-42.253749 73.561967,10.878841 176.72807,-1.5957533 189.55098,63.087388 121.35643,131.46673 47.916152,147.17551 39.173264,116.21999 114.94498,100.0492 121.35643,30.745808 49.081875,28.435706 Z"
       id="path12" />
    <path
       style="fill:none;stroke:#000000;stroke-width:0.562612"
       d="M 276.39703,86.188526 V 47.840664 h 20.98293 V 14.112993 h 83.93175 V 53.38493 h 34.38872 v 66.53124 h -33.22301 v 34.18968 h -36.13729 v -28.18339 h -15.73719 v 24.94922 H 290.38565 V 86.650537 Z"
       id="path13" />
    <path
       style="fill:none;stroke:#000000;stroke-width:0.562612"
       d="M 75.893402,233.57371 213.4482,125.92246 l 33.223,53.59463 97.92034,21.25302 59.45167,-6.00627 -0.58285,32.80359 -69.36026,0.92404 -85.68032,-23.56314 -41.96588,-24.94922 -30.30867,51.74652 -40.21732,19.40493 6.41146,30.03147 -71.108842,-22.63907 z"
       id="path14" />
  </g>
</svg>
